<svg xmlns="http://www.w3.org/2000/svg" viewBox="0 0 50.78 72.63"><defs><style>.cls-1{fill:#ffc113;}.cls-2{fill:#333;}.cls-3{fill:#d84444;}</style></defs><title>liked_2</title><g id="레이어_2" data-name="레이어 2"><g id="레이어_1-2" data-name="레이어 1"><circle class="cls-1" cx="25.39" cy="25.39" r="25.39"/><path class="cls-2" d="M38.22,37.94A17.91,17.91,0,0,0,12.49,38c-.9.92.52,2.34,1.42,1.41a15.88,15.88,0,0,1,22.89-.07c.9.92,2.32-.5,1.42-1.42Z"/><circle class="cls-2" cx="17.67" cy="16.63" r="3.99"/><circle class="cls-2" cx="32.75" cy="16.63" r="3.99"/><path class="cls-3" d="M10.27,66.78V65.25H4.05V64.13H18v1.12H11.68v1.53h4v3.43H7.64v1.24h8.47v1.13H6.29V69.13h8.08V67.91H6.29V66.78ZM6.35,63V58.09H7.8v1.45h6.42V58.09h1.41V63Zm7.87-2.32H7.76v1.19h6.46Z"/><path class="cls-3" d="M25.74,65.78H19.12v-7h6.62ZM24.4,64.6V59.91H20.48V64.6Zm5.87,7.69H21.13V67.82h1.41v3.27h7.73Zm2-9H30V68.5H28.57V58H30v4h2.3Z"/><path class="cls-3" d="M40.4,63.29v2h6.09v1.19H32.59V65.25H39v-2Zm.86-1.94a13.59,13.59,0,0,0,2.09.91,17.6,17.6,0,0,0,2.26.63L44.89,64a11.46,11.46,0,0,1-1.18-.34,12.93,12.93,0,0,1-1.23-.46c-.41-.17-.81-.36-1.19-.56s-.75-.41-1.08-.62a16.89,16.89,0,0,1-2.84,1.26,15.19,15.19,0,0,1-3,.7l-.66-1.07a15.29,15.29,0,0,0,2.51-.53,17.11,17.11,0,0,0,2.2-.8,11.39,11.39,0,0,0,1.78-1,7.63,7.63,0,0,0,1.29-1.07c-.56,0-1.12,0-1.67,0h-5V58.41H41.4c.67,0,1.38,0,2.12,0a.23.23,0,0,1,.25.12.3.3,0,0,1,0,.29,6.51,6.51,0,0,1-1,1.35A11.1,11.1,0,0,1,41.26,61.35Zm1.66,11.28V69.06H34.65V67.88H44.3v4.75Z"/></g></g></svg>