<svg xmlns="http://www.w3.org/2000/svg" viewBox="0 0 50.78 72.63"><defs><style>.cls-1{fill:#ffc113;}.cls-2{fill:#333;}.cls-3{fill:#fff;}.cls-4{fill:#cccbca;}.cls-5{fill:#d84444;}</style></defs><title>liked_1</title><g id="레이어_2" data-name="레이어 2"><g id="레이어_1-2" data-name="레이어 1"><circle class="cls-1" cx="25.39" cy="25.39" r="25.39"/><path class="cls-2" d="M11.45,9.21l8.08,6c1,.78,2-1,1-1.73l-8.09-6c-1-.77-2,1-1,1.73Z"/><path class="cls-2" d="M38.18,7.48l-8.08,6c-1,.77,0,2.51,1,1.73l8.08-6c1-.76,0-2.5-1-1.73Z"/><circle class="cls-2" cx="17.67" cy="16.63" r="3.99"/><circle class="cls-2" cx="32.75" cy="16.63" r="3.99"/><path class="cls-3" d="M42.06,40.47a16.67,16.67,0,0,0-33.34,0Z"/><path class="cls-4" d="M32.81,40.47V25.55a14.71,14.71,0,0,0-2-.84V40.47Z"/><path class="cls-4" d="M20.42,40.47V24.56a15,15,0,0,0-2,.77V40.47Z"/><path class="cls-5" d="M11.49,68.69h4.56V66h1.4v2.61c.75,0,1.49-.07,2.22-.13s1.39-.12,2-.21v1.14c-.52.08-1.08.14-1.69.19s-1.24.1-1.89.14-1.29.07-1.93.09l-1.81,0H11.49Zm8.3-8.09a3.66,3.66,0,0,1-.5,1.57,6.72,6.72,0,0,1-1.16,1.45,10.08,10.08,0,0,0,1.44.88,14.8,14.8,0,0,0,1.58.69l-.78,1a17.81,17.81,0,0,1-1.64-.81c-.53-.3-1.05-.63-1.55-1a12,12,0,0,1-2.13,1.31,13.88,13.88,0,0,1-2.25.85l-.9-1A12.22,12.22,0,0,0,13.77,65a11.81,11.81,0,0,0,1.7-.87A9.47,9.47,0,0,0,16.92,63,6.34,6.34,0,0,0,18,61.75c-.61,0-1.21,0-1.79,0H12.83V60.63H17.6Zm-5.65-1v-1.2h4.42v1.2Zm9.65,13H22.41V58h1.38Z"/><path class="cls-5" d="M25.79,62a3.61,3.61,0,0,1,.28-1.45,3.75,3.75,0,0,1,.78-1.17A3.6,3.6,0,0,1,28,58.58a3.9,3.9,0,0,1,2.95,0,3.54,3.54,0,0,1,1.19.77A3.77,3.77,0,0,1,33,60.52,3.61,3.61,0,0,1,33.25,62a3.62,3.62,0,0,1-1.08,2.62,3.87,3.87,0,0,1-1.19.77,4,4,0,0,1-2.95,0,4,4,0,0,1-1.18-.77A3.61,3.61,0,0,1,25.79,62Zm1.36,0a2.78,2.78,0,0,0,.17,1,2.18,2.18,0,0,0,.48.77,2.13,2.13,0,0,0,.74.51,2.52,2.52,0,0,0,1.92,0,2.17,2.17,0,0,0,.75-.51,2.23,2.23,0,0,0,.5-.77,2.58,2.58,0,0,0,.18-1,2.63,2.63,0,0,0-.18-1,2.33,2.33,0,0,0-.5-.77,2.17,2.17,0,0,0-.75-.51,2.49,2.49,0,0,0-1-.18,2.42,2.42,0,0,0-.94.18,2.17,2.17,0,0,0-.75.51,2.44,2.44,0,0,0-.48.77A2.63,2.63,0,0,0,27.15,62Zm8.46,10.66V68.47h-7.9V67.29H37v5.34Zm3.68-10H37v3.84H35.61V58H37v3.41h2.3Z"/></g></g></svg>