<svg xmlns="http://www.w3.org/2000/svg" viewBox="0 0 50.78 72.63"><defs><style>.cls-1{fill:#ffc113;}.cls-2{fill:#333;}.cls-3{fill:#cb2128;}.cls-4{fill:#d84444;}</style></defs><title>liked_5</title><g id="레이어_2" data-name="레이어 2"><g id="레이어_1-2" data-name="레이어 1"><circle class="cls-1" cx="25.39" cy="25.39" r="25.39"/><path class="cls-2" d="M8.72,25.41a16.67,16.67,0,0,0,33.34,0Z"/><path class="cls-3" d="M16.12,32a9.27,9.27,0,0,0,18.54,0Z"/><circle class="cls-2" cx="17.67" cy="16.63" r="3.99"/><circle class="cls-2" cx="32.75" cy="16.63" r="3.99"/><path class="cls-4" d="M18.33,65.78H11.7v-7h6.63ZM17,64.6V59.91H13.06V64.6Zm5.87,7.69H13.72V67.81h1.41v3.28h7.72Zm2-9H22.53V68.5H21.16V58h1.37v4h2.31Z"/><path class="cls-4" d="M33,63.29v2h6.1v1.19H25.17V65.25h6.4v-2Zm.87-1.94a13.48,13.48,0,0,0,2.08.91,18.21,18.21,0,0,0,2.27.63L37.48,64a10.93,10.93,0,0,1-1.19-.34c-.41-.13-.82-.29-1.23-.46s-.8-.36-1.19-.56-.75-.41-1.08-.62A16.54,16.54,0,0,1,30,63.27a15.1,15.1,0,0,1-3,.7l-.66-1.07a15.17,15.17,0,0,0,2.5-.53,16.58,16.58,0,0,0,2.2-.8,11.51,11.51,0,0,0,1.79-1,8.05,8.05,0,0,0,1.29-1.07c-.57,0-1.13,0-1.68,0h-5V58.41H34c.68,0,1.39,0,2.12,0a.23.23,0,0,1,.26.12.28.28,0,0,1,0,.28,5.73,5.73,0,0,1-1,1.36A10.38,10.38,0,0,1,33.85,61.35Zm1.66,11.28V69.06H27.24V67.88h9.65v4.75Z"/></g></g></svg>