<svg xmlns="http://www.w3.org/2000/svg" viewBox="0 0 50.78 72.63"><defs><style>.cls-1{fill:#ffc113;}.cls-2{fill:#333;}.cls-3{fill:#d84444;}</style></defs><title>liked_3</title><g id="레이어_2" data-name="레이어 2"><g id="레이어_1-2" data-name="레이어 1"><circle class="cls-1" cx="25.39" cy="25.39" r="25.39"/><circle class="cls-2" cx="17.67" cy="21.78" r="3.99"/><circle class="cls-2" cx="32.75" cy="21.78" r="3.99"/><path class="cls-2" d="M11.28,40.14H39.05a1,1,0,0,0,0-2H11.28a1,1,0,0,0,0,2Z"/><path class="cls-3" d="M13.28,66.18V58.71h1.41v2.5h6.55v-2.5h1.4v7.47h-4v3h6.08v1.17H11.16V69.16h6.08v-3Zm8-3.81H14.66v2.68h6.61Z"/><path class="cls-3" d="M27.59,64.1V58.29h9.33v1.17H29v1.17h7.7V61.7H29V63h8.16V64.1H32.9v1.51h6.27v1.16H25.27V65.61h6.22V64.1Zm9.71,6.05a1.68,1.68,0,0,1-.31,1,2.6,2.6,0,0,1-.94.8,5.85,5.85,0,0,1-1.55.52,11.33,11.33,0,0,1-2.14.18,7.75,7.75,0,0,1-3.72-.7,2.06,2.06,0,0,1-1.26-1.78,1.72,1.72,0,0,1,.32-1,2.65,2.65,0,0,1,.94-.78,6.06,6.06,0,0,1,1.56-.52,11.47,11.47,0,0,1,2.16-.18,11.33,11.33,0,0,1,2.14.18,5.85,5.85,0,0,1,1.55.52,2.57,2.57,0,0,1,.94.78A1.71,1.71,0,0,1,37.3,70.15Zm-1.49,0a.82.82,0,0,0-.17-.5,1.27,1.27,0,0,0-.57-.44A4.31,4.31,0,0,0,34,68.9a12.43,12.43,0,0,0-3.3,0,4.31,4.31,0,0,0-1.07.31,1.31,1.31,0,0,0-.58.44.82.82,0,0,0,0,1,1.46,1.46,0,0,0,.58.43,4.31,4.31,0,0,0,1.07.31,11.4,11.4,0,0,0,3.3,0,4.31,4.31,0,0,0,1.07-.31,1.42,1.42,0,0,0,.57-.43A.82.82,0,0,0,35.81,70.15Z"/></g></g></svg>